<svg width="12" height="14" viewBox="0 0 12 14" fill="none" xmlns="http://www.w3.org/2000/svg">
<path opacity="0.4" d="M4.43231 1.41551C4.92626 0.996766 5.41656 0.729004 6 0.729004C6.58344 0.729004 7.07374 0.996766 7.56769 1.41551L11.0862 5.32465C11.4639 5.87468 11.6875 6.39648 11.6875 6.99984C11.6875 7.60319 11.4639 8.12499 11.0862 8.67502L7.56769 12.5842C7.07374 13.0029 6.58344 13.2707 6 13.2707C5.41656 13.2707 4.92626 13.0029 4.43231 12.5842L0.913797 8.67502C0.5361 8.12499 0.3125 7.60319 0.3125 6.99984C0.3125 6.39648 0.5361 5.87468 0.913797 5.32465L4.43231 1.41551Z" fill="#003E29"/>
<path d="M11.0862 5.32566C11.4639 5.87569 11.6875 6.39749 11.6875 7.00085C11.6875 7.6042 11.4639 8.126 11.0862 8.67603L7.56769 12.5852C7.07374 13.0039 6.58344 13.2717 6 13.2717C5.41656 13.2717 4.92626 13.0039 4.43231 12.5852L2.5 10.4383L9.44078 3.49756L11.0862 5.32566Z" fill="#003E29"/>
</svg>
