<svg width="12" height="14" viewBox="0 0 12 14" fill="none" xmlns="http://www.w3.org/2000/svg">
<path fill-rule="evenodd" clip-rule="evenodd" d="M4.99813 2.08295C4.56781 2.44775 4.06623 3.00364 3.35843 3.79008L3.17301 3.99611C2.4658 4.7819 1.96466 5.34005 1.63511 5.81996C1.31354 6.28826 1.1875 6.6377 1.1875 6.99984C1.1875 7.36198 1.31354 7.71141 1.63511 8.17972C1.96465 8.65963 2.4658 9.21778 3.17301 10.0036L3.35843 10.2096C4.06623 10.996 4.56781 11.5519 4.99813 11.9167C5.42069 12.2749 5.7145 12.3957 6 12.3957C6.2855 12.3957 6.57931 12.2749 7.00187 11.9167C7.43218 11.5519 7.93377 10.996 8.64157 10.2096L8.82699 10.0036C9.5342 9.21778 10.0353 8.65963 10.3649 8.17972C10.6865 7.71141 10.8125 7.36198 10.8125 6.99984C10.8125 6.6377 10.6865 6.28826 10.3649 5.81996C10.0353 5.34005 9.5342 4.7819 8.82699 3.99611L8.64157 3.79008C7.93377 3.00364 7.43218 2.44775 7.00187 2.08295C6.57931 1.72473 6.2855 1.604 6 1.604C5.7145 1.604 5.42069 1.72473 4.99813 2.08295ZM4.43231 1.41551C4.92626 0.996766 5.41656 0.729004 6 0.729004C6.58344 0.729004 7.07374 0.996766 7.56769 1.41551C8.04858 1.82318 8.58926 2.42396 9.26938 3.17966L9.49845 3.43418C10.1798 4.19127 10.7202 4.7917 11.0862 5.32465C11.4639 5.87468 11.6875 6.39648 11.6875 6.99984C11.6875 7.60319 11.4639 8.12499 11.0862 8.67502C10.7202 9.20797 10.1799 9.80839 9.49846 10.5655L9.26939 10.82C8.58927 11.5757 8.04858 12.1765 7.56769 12.5842C7.07374 13.0029 6.58344 13.2707 6 13.2707C5.41656 13.2707 4.92626 13.0029 4.43231 12.5842C3.95142 12.1765 3.41074 11.5757 2.73062 10.82L2.70805 10.7949L2.50153 10.5655C1.82014 9.80838 1.27976 9.20797 0.913797 8.67502C0.5361 8.12499 0.3125 7.60319 0.3125 6.99984C0.3125 6.39648 0.5361 5.87468 0.913797 5.32465C1.27976 4.7917 1.82015 4.19128 2.50154 3.43419L2.73062 3.17966C3.41073 2.42396 3.95142 1.82318 4.43231 1.41551Z" fill="#003E29"/>
</svg>
